<?xml version="1.0" encoding="utf-8"?>
<svg width="70px" height="70px" viewbox="0 0 70 70" version="1.1" xmlns:xlink="http://www.w3.org/1999/xlink" xmlns="http://www.w3.org/2000/svg">
  <defs>
    <filter id="filter_1">
      <feColorMatrix in="SourceGraphic" type="matrix" values="0 0 0 0 0.3019608 0 0 0 0 0.46666667 0 0 0 0 0.003921569 0 0 0 1 0" />
    </filter>
    <path d="M0 0L70 0L70 70L0 70L0 0Z" id="path_1" />
    <clipPath id="mask_1">
      <use xlink:href="#path_1" />
    </clipPath>
  </defs>
  <g id="Plus-icon" filter="url(#filter_1)">
    <path d="M0 0L70 0L70 70L0 70L0 0Z" id="Background" fill="none" fill-rule="evenodd" stroke="none" />
    <g clip-path="url(#mask_1)">
      <path d="M32.0833 0L32.0833 8.75L37.9167 8.75L37.9167 0L32.0833 0L32.0833 0ZM12.3161 8.19173L8.19173 12.3161L14.3783 18.5026L18.5026 14.3783L12.3161 8.19173L12.3161 8.19173ZM57.6839 8.19173L51.4974 14.3783L55.6217 18.5026L61.8083 12.3161L57.6839 8.19173L57.6839 8.19173ZM35 14.5833C23.7582 14.5833 14.5833 23.7582 14.5833 35C14.5833 43.0727 19.4137 49.8815 26.25 53.1836L26.25 61.25C26.25 64.4381 28.8952 67.0833 32.0833 67.0833L37.9167 67.0833C41.1048 67.0833 43.75 64.4381 43.75 61.25L43.75 53.1836C50.5863 49.8815 55.4167 43.0727 55.4167 35C55.4167 23.7582 46.2418 14.5833 35 14.5833L35 14.5833ZM35 20.4167C43.0899 20.4167 49.5833 26.9101 49.5833 35C49.5833 41.371 45.5156 46.7333 39.8592 48.7345L37.9167 49.4181L37.9167 61.25L32.0833 61.25L32.0833 49.4181L30.1408 48.7345C24.4844 46.7333 20.4167 41.371 20.4167 35C20.4167 26.9101 26.9101 20.4167 35 20.4167L35 20.4167ZM0 32.0833L0 37.9167L8.75 37.9167L8.75 32.0833L0 32.0833L0 32.0833ZM61.25 32.0833L61.25 37.9167L70 37.9167L70 32.0833L61.25 32.0833L61.25 32.0833ZM14.3783 51.4974L8.19173 57.6839L12.3161 61.8083L18.5026 55.6217L14.3783 51.4974L14.3783 51.4974ZM55.6217 51.4974L51.4974 55.6217L57.6839 61.8083L61.8083 57.6839L55.6217 51.4974L55.6217 51.4974Z" id="Shape" fill="#FFFFFF" fill-rule="evenodd" stroke="none" />
    </g>
  </g>
</svg>