<?xml version="1.0" encoding="utf-8"?>
<svg width="70px" height="70px" viewbox="0 0 70 70" version="1.1" xmlns:xlink="http://www.w3.org/1999/xlink" xmlns="http://www.w3.org/2000/svg">
  <defs>
    <filter id="filter_1">
      <feColorMatrix in="SourceGraphic" type="matrix" values="0 0 0 0 0.3019608 0 0 0 0 0.46666667 0 0 0 0 0.003921569 0 0 0 1 0" />
    </filter>
    <path d="M0 0L70 0L70 70L0 70L0 0Z" id="path_1" />
    <clipPath id="mask_1">
      <use xlink:href="#path_1" />
    </clipPath>
  </defs>
  <g id="Plus-icon-Copy-2" filter="url(#filter_1)">
    <path d="M0 0L70 0L70 70L0 70L0 0Z" id="Background" fill="none" fill-rule="evenodd" stroke="none" />
    <g clip-path="url(#mask_1)">
      <path d="M18.9583 0C16.4135 0 13.9802 0.512017 11.7635 1.42415L7.71322 3.08757L19.209 14.5833L14.5833 19.209L3.08756 7.71322L1.42415 11.7635C0.512016 13.9802 0 16.4135 0 18.9583C0 29.3949 8.52172 37.9167 18.9583 37.9167C20.7628 37.9167 22.4028 37.3817 24.0568 36.9084L50.0391 62.8849C51.7254 64.5713 54.5393 64.5713 56.2256 62.8849L62.8906 56.2142C64.5649 54.5313 64.5679 51.7162 62.8849 50.0334L36.9084 24.0568C37.381 22.4029 37.9167 20.7627 37.9167 18.9583C37.9167 8.52172 29.3949 0 18.9583 0L18.9583 0ZM18.9583 5.83333C26.2434 5.83333 32.0833 11.6733 32.0833 18.9583C32.0833 20.7286 31.7275 22.4053 31.0921 23.9543L30.3573 25.7544L57.7295 53.1266L53.1323 57.7295L25.7544 30.3516L23.9543 31.0921C22.4073 31.7291 20.732 32.0833 18.9583 32.0833C11.6733 32.0833 5.83333 26.2434 5.83333 18.9583C5.83333 18.8837 5.87196 18.8219 5.87321 18.7476L14.5833 27.4577L27.4577 14.5833L18.7476 5.87321C18.8219 5.87196 18.8837 5.83333 18.9583 5.83333L18.9583 5.83333Z" transform="translate(2.916626 2.916687)" id="Shape" fill="#FFFFFF" fill-rule="evenodd" stroke="none" />
    </g>
  </g>
</svg>